# xmcd CD database file
#
# Track frame offsets:
#	150
#	31931
#	55494
#	89804
#	117753
#	147172
#	179263
#	204380
#
# Disc length: 3004 seconds
#
# Revision: 0
# Processed by: cddbd v1.5.2PL0 Copyright (c) Steve Scherf et al.
# Submitted via: CDex 1.70beta2
#
DISCID=6f0bba08
DTITLE=ADAM TVRDY - BRIAN CHARETTE - PETR MIKES - SUSPICIOUS ACTIVITIES
DYEAR=2013
DGENRE=Jazz
TTITLE0=FIVE FOR BLUES by Adam Tvrdy
TTITLE1=SERENITY by Joe Henderson
TTITLE2=A PRAYER by Adam Tvrdy
TTITLE3=NORWEGIAN WOOD by The Beatles
TTITLE4=CHARM OF NOVEMBER by Adam Tvrdy
TTITLE5=IT COULD HAPPEN TO YOU by James Van Heusen
TTITLE6=AIRY ICONS by Anastasiya Lozova
TTITLE7=SUSPICIOUS ACTIVITIES by Adam Tvrdy
EXTD=YEAR: 2013
EXTT0=
EXTT1=
EXTT2=
EXTT3=
EXTT4=
EXTT5=
EXTT6=
EXTT7=
PLAYORDER=
